<svg width="187" height="64" viewBox="0 0 187 64" fill="none" xmlns="http://www.w3.org/2000/svg">
<g filter="url(#filter0_d_1_15)">
<path d="M51.2 7.99951V55.9995M8 12.7995H56M13.6 51.1995H50.4C50.8418 51.1995 51.2 50.8413 51.2 50.3995V32.7995C51.2 32.3577 50.8418 31.9995 50.4 31.9995H13.6C13.1582 31.9995 12.8 32.3577 12.8 32.7995V50.3995C12.8 50.8413 13.1582 51.1995 13.6 51.1995Z" stroke="black" stroke-opacity="0.04" stroke-width="9.6"/>
</g>
<g filter="url(#filter1_d_1_15)">
<path d="M84.6811 42.288C83.6411 42.288 82.7771 42.048 82.0891 41.568C81.4171 41.088 81.0811 40.288 81.0811 39.168C81.0811 38.24 81.3611 37.472 81.9211 36.864C82.4811 36.256 83.2651 35.8 84.2731 35.496C85.2971 35.192 86.4891 35.04 87.8491 35.04C88.0251 35.04 88.1131 34.952 88.1131 34.776V34.104C88.1131 33.24 87.9611 32.56 87.6571 32.064C87.3531 31.552 86.8651 31.296 86.1931 31.296C85.5691 31.296 85.0971 31.416 84.7771 31.656C84.4571 31.88 84.3771 32.176 84.5371 32.544C84.7931 33.088 84.7851 33.576 84.5131 34.008C84.2411 34.424 83.7771 34.632 83.1211 34.632C82.7211 34.632 82.3851 34.504 82.1131 34.248C81.8411 33.976 81.7051 33.6 81.7051 33.12C81.7051 32.64 81.9051 32.192 82.3051 31.776C82.7051 31.36 83.2491 31.024 83.9371 30.768C84.6411 30.496 85.4331 30.36 86.3131 30.36C87.7691 30.36 88.8651 30.68 89.6011 31.32C90.3371 31.96 90.7051 32.84 90.7051 33.96V39.048C90.7051 39.688 90.7691 40.104 90.8971 40.296C91.0411 40.472 91.2171 40.56 91.4251 40.56C91.5851 40.56 91.7211 40.536 91.8331 40.488C91.9611 40.424 92.0571 40.36 92.1211 40.296C92.2971 40.12 92.4731 40.128 92.6491 40.32C92.7291 40.4 92.7611 40.488 92.7451 40.584C92.7291 40.68 92.6891 40.776 92.6251 40.872C92.4011 41.24 92.1211 41.552 91.7851 41.808C91.4651 42.048 91.0731 42.168 90.6091 42.168C90.0811 42.168 89.6251 42.056 89.2411 41.832C88.8731 41.608 88.5931 41.248 88.4011 40.752C88.3531 40.624 88.2891 40.568 88.2091 40.584C88.1291 40.6 88.0571 40.648 87.9931 40.728C87.6891 41.16 87.2811 41.528 86.7691 41.832C86.2571 42.136 85.5611 42.288 84.6811 42.288ZM85.8811 40.848C86.3451 40.848 86.7451 40.72 87.0811 40.464C87.4171 40.192 87.6731 39.872 87.8491 39.504C88.0251 39.136 88.1131 38.784 88.1131 38.448V36.24C88.1131 36 88.0011 35.88 87.7771 35.88C86.6091 35.88 85.6731 36.104 84.9691 36.552C84.2651 36.984 83.9131 37.72 83.9131 38.76C83.9131 39.384 84.0331 39.848 84.2731 40.152C84.5131 40.44 84.7851 40.632 85.0891 40.728C85.4091 40.808 85.6731 40.848 85.8811 40.848ZM100.839 42.288C100.007 42.288 99.3185 42.12 98.7745 41.784C98.2465 41.448 97.8225 41.056 97.5025 40.608C97.3905 40.448 97.2785 40.376 97.1665 40.392C97.0705 40.408 96.9905 40.464 96.9265 40.56C96.8785 40.624 96.7825 40.76 96.6385 40.968C96.4945 41.16 96.3505 41.36 96.2065 41.568C96.0625 41.776 95.9585 41.928 95.8945 42.024C95.7985 42.152 95.6545 42.184 95.4625 42.12C95.2705 42.072 95.1825 41.96 95.1985 41.784C95.2145 41.592 95.2545 41.184 95.3185 40.56C95.3985 39.936 95.4385 39.24 95.4385 38.472V26.712C95.4385 26.264 95.3905 25.968 95.2945 25.824C95.2145 25.664 95.0625 25.576 94.8385 25.56C94.7265 25.528 94.5345 25.504 94.2625 25.488C94.0065 25.456 93.8225 25.432 93.7105 25.416C93.4865 25.384 93.3745 25.256 93.3745 25.032C93.3745 24.76 93.4945 24.624 93.7345 24.624C93.7825 24.624 93.9825 24.624 94.3345 24.624C94.6865 24.608 95.0785 24.6 95.5105 24.6C95.9585 24.6 96.3665 24.6 96.7345 24.6C97.1025 24.584 97.3345 24.576 97.4305 24.576C97.8305 24.576 98.0305 24.784 98.0305 25.2V31.608C98.0305 31.704 98.0625 31.768 98.1265 31.8C98.2065 31.816 98.2945 31.768 98.3905 31.656C98.5985 31.416 98.9425 31.144 99.4225 30.84C99.9025 30.52 100.567 30.36 101.415 30.36C102.183 30.36 102.935 30.544 103.671 30.912C104.423 31.28 105.039 31.888 105.519 32.736C105.999 33.568 106.239 34.704 106.239 36.144C106.239 37.296 106.071 38.264 105.735 39.048C105.415 39.832 104.991 40.464 104.463 40.944C103.935 41.424 103.351 41.768 102.711 41.976C102.087 42.184 101.463 42.288 100.839 42.288ZM100.671 41.4C101.295 41.4 101.807 41.24 102.207 40.92C102.623 40.6 102.927 40.056 103.119 39.288C103.327 38.52 103.431 37.472 103.431 36.144C103.431 34.816 103.319 33.8 103.095 33.096C102.887 32.392 102.591 31.912 102.207 31.656C101.823 31.384 101.375 31.248 100.863 31.248C100.463 31.248 100.039 31.376 99.5905 31.632C99.1585 31.872 98.7825 32.264 98.4625 32.808C98.1585 33.352 98.0065 34.072 98.0065 34.968V37.32C98.0065 38.76 98.2625 39.8 98.7745 40.44C99.2865 41.08 99.9185 41.4 100.671 41.4ZM113.557 42.288C112.981 42.288 112.397 42.2 111.805 42.024C111.213 41.864 110.717 41.704 110.317 41.544C110.125 41.464 109.949 41.432 109.789 41.448C109.645 41.464 109.509 41.512 109.381 41.592C109.285 41.656 109.197 41.728 109.117 41.808C109.053 41.872 108.981 41.944 108.901 42.024C108.741 42.184 108.573 42.232 108.397 42.168C108.237 42.104 108.157 41.96 108.157 41.736V38.4C108.157 38.192 108.245 38.072 108.421 38.04C108.613 38.008 108.757 38.072 108.853 38.232C110.053 40.2 111.637 41.184 113.605 41.184C114.373 41.184 115.021 41.024 115.549 40.704C116.093 40.384 116.365 39.912 116.365 39.288C116.365 38.872 116.173 38.552 115.789 38.328C115.405 38.104 114.909 37.928 114.301 37.8C113.693 37.656 113.053 37.504 112.381 37.344C111.709 37.184 111.069 36.968 110.461 36.696C109.853 36.424 109.357 36.048 108.973 35.568C108.589 35.072 108.397 34.416 108.397 33.6C108.397 33.056 108.541 32.536 108.829 32.04C109.133 31.544 109.589 31.144 110.197 30.84C110.805 30.52 111.573 30.36 112.501 30.36C113.029 30.36 113.549 30.424 114.061 30.552C114.589 30.664 115.045 30.8 115.429 30.96C115.877 31.136 116.197 31.144 116.389 30.984C116.469 30.92 116.549 30.856 116.629 30.792C116.725 30.712 116.813 30.64 116.893 30.576C117.037 30.48 117.165 30.448 117.277 30.48C117.405 30.496 117.469 30.608 117.469 30.816V33.816C117.469 34.024 117.373 34.152 117.181 34.2C116.989 34.232 116.853 34.168 116.773 34.008C116.373 33.064 115.805 32.384 115.069 31.968C114.333 31.552 113.597 31.344 112.861 31.344C112.029 31.344 111.397 31.528 110.965 31.896C110.533 32.248 110.317 32.656 110.317 33.12C110.317 33.504 110.509 33.8 110.893 34.008C111.277 34.2 111.765 34.36 112.357 34.488C112.965 34.6 113.605 34.728 114.277 34.872C114.949 35 115.581 35.2 116.173 35.472C116.781 35.744 117.277 36.136 117.661 36.648C118.045 37.144 118.237 37.816 118.237 38.664C118.237 39.336 118.045 39.952 117.661 40.512C117.277 41.056 116.733 41.488 116.029 41.808C115.325 42.128 114.501 42.288 113.557 42.288ZM124.543 42.288C123.855 42.288 123.255 42.128 122.743 41.808C122.231 41.488 121.975 40.888 121.975 40.008V31.776C121.975 31.648 121.903 31.584 121.759 31.584H120.295C120.039 31.584 119.911 31.456 119.911 31.2V31.128C119.911 31.016 119.943 30.936 120.007 30.888C120.087 30.824 120.183 30.776 120.295 30.744C121.223 30.424 121.935 29.944 122.431 29.304C122.943 28.648 123.263 27.736 123.391 26.568C123.391 26.312 123.519 26.184 123.775 26.184H124.183C124.279 26.184 124.367 26.224 124.447 26.304C124.527 26.368 124.567 26.456 124.567 26.568V30.432C124.567 30.576 124.631 30.648 124.759 30.648H127.495C127.751 30.648 127.879 30.768 127.879 31.008V31.2C127.879 31.456 127.751 31.584 127.495 31.584H124.759C124.631 31.584 124.567 31.648 124.567 31.776V39.168C124.567 40.048 125.023 40.488 125.935 40.488C126.367 40.488 126.751 40.36 127.087 40.104C127.439 39.848 127.703 39.552 127.879 39.216C128.007 38.976 128.207 38.936 128.479 39.096C128.591 39.16 128.647 39.24 128.647 39.336C128.647 39.432 128.623 39.544 128.575 39.672C128.303 40.36 127.831 40.968 127.159 41.496C126.503 42.024 125.631 42.288 124.543 42.288ZM130.283 42C130.043 42 129.923 41.864 129.923 41.592C129.923 41.336 130.043 41.208 130.283 41.208C130.939 41.208 131.427 41.088 131.747 40.848C132.067 40.608 132.227 40.2 132.227 39.624V32.76C132.227 32.408 132.187 32.144 132.107 31.968C132.043 31.792 131.899 31.688 131.675 31.656C131.595 31.64 131.443 31.624 131.219 31.608C130.995 31.576 130.771 31.552 130.547 31.536C130.339 31.52 130.195 31.504 130.115 31.488C129.891 31.44 129.779 31.312 129.779 31.104C129.779 30.832 129.899 30.696 130.139 30.696C130.187 30.696 130.395 30.696 130.763 30.696C131.147 30.68 131.571 30.672 132.035 30.672C132.515 30.672 132.947 30.672 133.331 30.672C133.731 30.656 133.979 30.648 134.075 30.648C134.475 30.648 134.675 30.856 134.675 31.272V32.616C134.675 32.68 134.699 32.72 134.747 32.736C134.795 32.752 134.843 32.728 134.891 32.664C135.131 32.296 135.427 31.936 135.779 31.584C136.131 31.232 136.531 30.944 136.979 30.72C137.443 30.48 137.939 30.36 138.467 30.36C139.395 30.36 140.083 30.552 140.531 30.936C140.979 31.32 141.203 31.816 141.203 32.424C141.203 32.776 141.067 33.136 140.795 33.504C140.539 33.856 140.147 34.032 139.619 34.032C139.027 34.032 138.619 33.88 138.395 33.576C138.187 33.256 138.083 32.944 138.083 32.64C138.083 32.32 138.035 32.096 137.939 31.968C137.843 31.824 137.675 31.752 137.435 31.752C137.019 31.752 136.603 31.952 136.187 32.352C135.787 32.752 135.451 33.272 135.179 33.912C134.923 34.536 134.795 35.216 134.795 35.952V39.576C134.795 40.184 134.979 40.608 135.347 40.848C135.731 41.088 136.211 41.208 136.787 41.208C137.043 41.208 137.171 41.336 137.171 41.592C137.171 41.864 137.043 42 136.787 42C136.627 42 136.251 41.992 135.659 41.976C135.083 41.944 134.363 41.928 133.499 41.928C132.763 41.928 132.083 41.944 131.459 41.976C130.851 41.992 130.459 42 130.283 42ZM146.251 42.288C145.211 42.288 144.347 42.048 143.659 41.568C142.987 41.088 142.651 40.288 142.651 39.168C142.651 38.24 142.931 37.472 143.491 36.864C144.051 36.256 144.835 35.8 145.843 35.496C146.867 35.192 148.059 35.04 149.419 35.04C149.595 35.04 149.683 34.952 149.683 34.776V34.104C149.683 33.24 149.531 32.56 149.227 32.064C148.923 31.552 148.435 31.296 147.763 31.296C147.139 31.296 146.667 31.416 146.347 31.656C146.027 31.88 145.947 32.176 146.107 32.544C146.363 33.088 146.355 33.576 146.083 34.008C145.811 34.424 145.347 34.632 144.691 34.632C144.291 34.632 143.955 34.504 143.683 34.248C143.411 33.976 143.275 33.6 143.275 33.12C143.275 32.64 143.475 32.192 143.875 31.776C144.275 31.36 144.819 31.024 145.507 30.768C146.211 30.496 147.003 30.36 147.883 30.36C149.339 30.36 150.435 30.68 151.171 31.32C151.907 31.96 152.275 32.84 152.275 33.96V39.048C152.275 39.688 152.339 40.104 152.467 40.296C152.611 40.472 152.787 40.56 152.995 40.56C153.155 40.56 153.291 40.536 153.403 40.488C153.531 40.424 153.627 40.36 153.691 40.296C153.867 40.12 154.043 40.128 154.219 40.32C154.299 40.4 154.331 40.488 154.315 40.584C154.299 40.68 154.259 40.776 154.195 40.872C153.971 41.24 153.691 41.552 153.355 41.808C153.035 42.048 152.643 42.168 152.179 42.168C151.651 42.168 151.195 42.056 150.811 41.832C150.443 41.608 150.163 41.248 149.971 40.752C149.923 40.624 149.859 40.568 149.779 40.584C149.699 40.6 149.627 40.648 149.563 40.728C149.259 41.16 148.851 41.528 148.339 41.832C147.827 42.136 147.131 42.288 146.251 42.288ZM147.451 40.848C147.915 40.848 148.315 40.72 148.651 40.464C148.987 40.192 149.243 39.872 149.419 39.504C149.595 39.136 149.683 38.784 149.683 38.448V36.24C149.683 36 149.571 35.88 149.347 35.88C148.179 35.88 147.243 36.104 146.539 36.552C145.835 36.984 145.483 37.72 145.483 38.76C145.483 39.384 145.603 39.848 145.843 40.152C146.083 40.44 146.355 40.632 146.659 40.728C146.979 40.808 147.243 40.848 147.451 40.848ZM161.185 42.288C160.145 42.288 159.185 42.096 158.305 41.712C157.441 41.328 156.745 40.712 156.217 39.864C155.689 39 155.425 37.88 155.425 36.504C155.425 35.352 155.665 34.312 156.145 33.384C156.625 32.456 157.321 31.72 158.233 31.176C159.145 30.632 160.249 30.36 161.545 30.36C162.249 30.36 162.905 30.496 163.513 30.768C164.121 31.024 164.617 31.376 165.001 31.824C165.385 32.272 165.577 32.792 165.577 33.384C165.577 33.832 165.425 34.216 165.121 34.536C164.833 34.84 164.457 34.992 163.993 34.992C163.529 34.992 163.177 34.88 162.937 34.656C162.713 34.416 162.609 34.112 162.625 33.744C162.641 33.52 162.689 33.344 162.769 33.216C162.865 33.072 162.961 32.92 163.057 32.76C163.153 32.6 163.201 32.4 163.201 32.16C163.201 31.984 163.073 31.792 162.817 31.584C162.561 31.376 162.193 31.272 161.713 31.272C161.201 31.272 160.673 31.44 160.129 31.776C159.601 32.096 159.153 32.64 158.785 33.408C158.433 34.16 158.257 35.192 158.257 36.504C158.257 38.008 158.585 39.128 159.241 39.864C159.897 40.6 160.713 40.968 161.689 40.968C162.329 40.968 162.881 40.848 163.345 40.608C163.825 40.368 164.225 40.072 164.545 39.72C164.881 39.352 165.121 38.992 165.265 38.64C165.377 38.384 165.561 38.312 165.817 38.424C166.073 38.52 166.145 38.704 166.033 38.976C165.857 39.44 165.585 39.928 165.217 40.44C164.865 40.952 164.369 41.392 163.729 41.76C163.089 42.112 162.241 42.288 161.185 42.288ZM172.356 42.288C171.668 42.288 171.068 42.128 170.556 41.808C170.044 41.488 169.788 40.888 169.788 40.008V31.776C169.788 31.648 169.716 31.584 169.572 31.584H168.108C167.852 31.584 167.724 31.456 167.724 31.2V31.128C167.724 31.016 167.756 30.936 167.82 30.888C167.9 30.824 167.996 30.776 168.108 30.744C169.036 30.424 169.748 29.944 170.244 29.304C170.756 28.648 171.076 27.736 171.204 26.568C171.204 26.312 171.332 26.184 171.588 26.184H171.996C172.092 26.184 172.18 26.224 172.26 26.304C172.34 26.368 172.38 26.456 172.38 26.568V30.432C172.38 30.576 172.444 30.648 172.572 30.648H175.308C175.564 30.648 175.692 30.768 175.692 31.008V31.2C175.692 31.456 175.564 31.584 175.308 31.584H172.572C172.444 31.584 172.38 31.648 172.38 31.776V39.168C172.38 40.048 172.836 40.488 173.748 40.488C174.18 40.488 174.564 40.36 174.9 40.104C175.252 39.848 175.516 39.552 175.692 39.216C175.82 38.976 176.02 38.936 176.292 39.096C176.404 39.16 176.46 39.24 176.46 39.336C176.46 39.432 176.436 39.544 176.388 39.672C176.116 40.36 175.644 40.968 174.972 41.496C174.316 42.024 173.444 42.288 172.356 42.288ZM180.255 42.288C179.711 42.288 179.247 42.104 178.863 41.736C178.495 41.352 178.311 40.888 178.311 40.344C178.311 39.8 178.495 39.344 178.863 38.976C179.247 38.592 179.711 38.4 180.255 38.4C180.799 38.4 181.255 38.592 181.623 38.976C182.007 39.344 182.199 39.8 182.199 40.344C182.199 40.888 182.007 41.352 181.623 41.736C181.255 42.104 180.799 42.288 180.255 42.288Z" fill="white"/>
</g>
<defs>
<filter id="filter0_d_1_15" x="-4" y="-4" width="72" height="72" filterUnits="userSpaceOnUse" color-interpolation-filters="sRGB">
<feFlood flood-opacity="0" result="BackgroundImageFix"/>
<feColorMatrix in="SourceAlpha" type="matrix" values="0 0 0 0 0 0 0 0 0 0 0 0 0 0 0 0 0 0 127 0" result="hardAlpha"/>
<feOffset/>
<feGaussianBlur stdDeviation="2"/>
<feComposite in2="hardAlpha" operator="out"/>
<feColorMatrix type="matrix" values="0 0 0 0 1 0 0 0 0 1 0 0 0 0 1 0 0 0 1 0"/>
<feBlend mode="normal" in2="BackgroundImageFix" result="effect1_dropShadow_1_15"/>
<feBlend mode="normal" in="SourceGraphic" in2="effect1_dropShadow_1_15" result="shape"/>
</filter>
<filter id="filter1_d_1_15" x="77.0811" y="22.576" width="109.118" height="25.712" filterUnits="userSpaceOnUse" color-interpolation-filters="sRGB">
<feFlood flood-opacity="0" result="BackgroundImageFix"/>
<feColorMatrix in="SourceAlpha" type="matrix" values="0 0 0 0 0 0 0 0 0 0 0 0 0 0 0 0 0 0 127 0" result="hardAlpha"/>
<feOffset dy="2"/>
<feGaussianBlur stdDeviation="2"/>
<feComposite in2="hardAlpha" operator="out"/>
<feColorMatrix type="matrix" values="0 0 0 0 0 0 0 0 0 0 0 0 0 0 0 0 0 0 0.16 0"/>
<feBlend mode="normal" in2="BackgroundImageFix" result="effect1_dropShadow_1_15"/>
<feBlend mode="normal" in="SourceGraphic" in2="effect1_dropShadow_1_15" result="shape"/>
</filter>
</defs>
</svg>
